<?xml version="1.0" standalone="yes"?><!DOCTYPE svg PUBLIC "-//W3C//DTD SVG 1.1//EN" "http://www.w3.org/Graphics/SVG/1.1/DTD/svg11.dtd"[
<!ENTITY E20 'matrix(1.00 0.00 0.00 1.00 84.00 4.00 ) '><!ENTITY E15 'matrix(1.00 0.00 0.00 1.00 164.00 164.00 ) '><!ENTITY E10 'matrix(1.00 0.00 0.00 1.00 0.00 0.00 ) '><!ENTITY E5 'stroke:none;opacity:1;fill:rgb(155,91,179);'><!ENTITY E13 'stroke:none;fill-rule:evenodd;opacity:1;fill:rgb(255,255,255);'><!ENTITY E3 'stroke:rgb(169,169,169);fill:none;stroke-linecap:butt;stroke-miterlimit:9;opacity:1;stroke-width:2;stroke-linejoin:miter;'><!ENTITY E30 'stroke:none;opacity:1;fill:rgb(91,178,126);'><!ENTITY E1 'stroke:rgb(169,169,169);fill:none;stroke-linecap:butt;stroke-miterlimit:9;opacity:1;stroke-width:1;stroke-linejoin:miter;'><!ENTITY E34 'matrix(1.00 0.00 0.00 1.00 4.00 4.00 ) '><!ENTITY E4 'matrix(1.00 0.00 0.00 1.00 164.00 4.00 ) '><!ENTITY E24 'matrix(1.00 0.00 0.00 1.00 84.00 84.00 ) '><!ENTITY E25 'M 23.75 9.1 19.5587 11.5211 19.5587 18.3937 23.75 20.8147 z '><!ENTITY E11 'matrix(1.00 0.00 0.00 1.00 164.00 84.00 ) '><!ENTITY E7 'stroke:rgb(255,255,255);fill:none;stroke-linecap:butt;stroke-miterlimit:9;opacity:1;stroke-width:2;stroke-linejoin:miter;'><!ENTITY E2 'M 10.158 33.2 C 3.4054 31.7591 -1.861 26.4692 -3.271 19.71 '><!ENTITY E29 'matrix(1.00 0.00 0.00 1.00 84.00 164.00 ) '><!ENTITY E28 'M 31.179 5.2 C 34.9985 11.0918 34.9814 18.682 31.13552 24.557 '><!ENTITY E26 'M 8.6927 9.2 15.7194 9.2 C 17.19 9.2 18.3739 10.4337 18.3739 11.9661 L 18.3739 17.8234 C 18.3739 19.3558 17.19 20.5893 15.7194 20.5893 L 8.692701 20.5893 C 7.222101 20.5893 6.038201 19.3558 6.038201 17.8234 L 6.038201 11.9661 C 6.038201 10.4337 7.222101 9.199999 8.692701 9.199999 z '>
]><svg width="227.2331" height="212.8252" id="SvgGdi_output" xmlns="http://www.w3.org/2000/svg"><rect id="background" height="100.00%" style="fill:rgb(255,255,255);" width="100.00%" y="0.00" x="0.00" /><g style="shape-rendering:auto;" id="root_group"><line y1="19.00" style="&E1;" id="143" x2="160.00" y2="19.00" x1="118.00" /><line y1="99.00" style="&E1;" id="144" x2="160.00" y2="99.00" x1="118.00" /><line y1="179.00" style="&E1;" id="145" x2="160.00" y2="179.00" x1="118.00" /><line y1="19.00" style="&E1;" id="146" x2="80.00" y2="19.00" x1="38.00" /><line y1="19.00" style="&E1;" id="147" x2="80.00" y2="99.00" x1="38.00" /><path d="&E2;" style="&E3;" transform="&E4;" id="148" /><ellipse id="149" cy="15.00" cx="15.00" transform="&E4;" rx="15.00" ry="15.00" style="&E5;" /><path style="&E7;" transform="&E4;" id="150" d="M 7.3965 19.566 7.3965 10.8433 " /><path style="&E7;" transform="&E4;" id="151" d="M 11.085 22.137 14.2178 8.273999 " /><ellipse id="152" cy="15.15" cx="20.49" transform="&E4;" rx="4.18" ry="4.18" style="&E7;" /><text id="153" transform="&E10;" x="164.00" y="39.00" style="stroke:none;clip-path:url(#155_text_clipper);font-family:Microsoft Sans Serif;fill:rgb(0,0,0);font-size:8.25pt;opacity:1;"><tspan dy="8.25pt" id="157">CsvWriter</tspan></text><path d="&E2;" style="&E3;" transform="&E11;" id="159" /><ellipse id="160" cy="15.00" cx="15.00" transform="&E11;" rx="15.00" ry="15.00" style="&E5;" /><path style="&E13;" transform="&E11;" id="161" d="M 8.625 8.4 8.96875 8.9 13.28125 15.025 8.62505 21.6187 8.2813 22.1187 11.7501 22.1187 11.84385 21.9937 15.00005 17.2124 15.4688 17.9 18.125 21.9937 18.21875 22.1187 21.71875 22.1187 21.375 21.6187 16.625 14.8687 21.0312 8.9 21.4062 8.4 17.9688 8.4 17.87505 8.5562 15.68755 11.6187 15.6563 11.65 C 15.44045 11.9482 15.18092 12.3233 14.93755 12.6812 14.74069 12.357 14.55318 12.0383 14.2813 11.6187 L 12.2813 8.5562 12.18755 8.4 9.25005 8.4 z " /><text id="162" transform="&E10;" x="164.00" y="119.00" style="stroke:none;clip-path:url(#164_text_clipper);font-family:Microsoft Sans Serif;fill:rgb(0,0,0);font-size:8.25pt;opacity:1;"><tspan dy="8.25pt" id="166">video</tspan></text><ellipse id="168" cy="15.00" cx="15.00" transform="&E15;" rx="15.00" ry="15.00" style="stroke:none;opacity:1;fill:rgb(68,154,223);" /><path style="&E13;" transform="&E15;" id="169" d="M 18.422 13 13.4357 18.5006 10.8556 15.9868 6.500101 20.5001 23.9571 20.48582 z " /><ellipse id="170" cy="10.96" cx="10.92" transform="&E15;" rx="2.75" ry="2.75" style="stroke:none;opacity:1;fill:rgb(255,255,255);" /><text id="171" transform="&E10;" x="164.00" y="199.00" style="stroke:none;clip-path:url(#173_text_clipper);font-family:Microsoft Sans Serif;fill:rgb(0,0,0);font-size:8.25pt;opacity:1;"><tspan dy="8.25pt" id="175">DetectPose</tspan></text><ellipse id="177" cy="15.00" cx="15.00" transform="&E20;" rx="15.00" ry="15.00" style="stroke:none;opacity:1;fill:rgb(238,192,75);" /><path style="&E13;" transform="&E20;" id="178" d="M 12.246 6.0137 12.246 6.019559 C 12.05806 6.020259 11.89471 6.040434 11.76748 6.066434 10.86869 6.352735 10.89631 6.934374 9.87688 7.685534 8.863379 8.264335 8.35338 7.819914 7.61518 8.419914 6.87845 9.015514 7.39292 10.38251 7.08393 10.64841 6.77722 11.18001 5.82553 11.65471 5.65233 12.32611 5.50916 13.18481 6.04191 13.79701 6.02147 14.53311 6.08287 15.14641 5.41127 15.49489 5.5078 15.99211 5.79702 16.80421 6.35438 17.29221 6.6172 17.51751 6.663351 17.54951 6.700028 17.5985 6.714856 17.6015 6.790713 17.792 6.858586 17.98645 6.955086 18.16595 6.949606 18.13995 6.948576 18.11382 6.943367 18.08782 6.998228 18.30542 7.055077 18.52401 7.132816 18.73821 8.683116 22.09901 12.81412 24.68611 17.34182 24.11711 19.54102 23.84771 22.82442 22.33171 24.16602 18.73821 23.22044 19.58671 21.53152 20.32421 20.77732 20.38081 23.33002 19.10511 24.70712 16.93741 24.32031 13.97461 23.79154 15.23341 23.09341 16.20131 22.22071 16.86521 24.07451 13.97551 23.75691 12.48131 22.38478 10.83981 23.36615 13.53881 22.09719 16.53431 19.33208 18.66401 20.45238 18.78541 21.51657 18.51614 22.50198 17.71284 21.01318 19.37354 19.14968 20.20834 17.01368 20.43554 18.03358 21.30254 19.01818 21.69454 19.95898 21.52734 17.34458 22.24884 15.15478 21.45428 12.49018 18.80074 12.3507 19.51504 13.10514 20.62754 13.88278 21.33784 9.373278 19.38284 8.976177 13.29584 14.46872 11.79294 14.47202 11.79294 14.47518 11.79384 14.47848 11.79294 17.74978 13.70674 21.86528 13.58084 22.05078 12.34372 22.50885 10.86082 19.96508 7.805223 16.16208 7.007823 15.4618 6.871123 14.79228 6.817344 14.15428 6.835943 14.16706 6.835943 14.17858 6.836182 14.19139 6.826178 13.58399 6.177278 12.80989 6.011678 12.24609 6.013678 z M 17.17769 9.046878 C 17.72373 9.046878 18.22259 9.543848 18.22259 10.08988 18.22259 10.63598 17.72371 11.13288 17.17769 11.13288 16.63165 11.13288 16.13469 10.63601 16.13469 10.08988 16.13474 9.543879 16.63162 9.046778 17.17769 9.046878 z " /><text id="179" transform="&E10;" x="84.00" y="39.00" style="stroke:none;clip-path:url(#181_text_clipper);font-family:Microsoft Sans Serif;fill:rgb(0,0,0);font-size:8.25pt;opacity:1;"><tspan dy="8.25pt" id="183">Timestamp</tspan></text><path d="&E2;" style="&E3;" transform="&E24;" id="185" /><ellipse id="186" cy="15.00" cx="15.00" transform="&E24;" rx="15.00" ry="15.00" style="&E5;" /><path d="&E25;" style="&E13;" transform="&E24;" id="187" /><path d="&E26;" style="&E13;" transform="&E24;" id="188" /><text id="189" transform="&E10;" x="84.00" y="119.00" style="stroke:none;clip-path:url(#191_text_clipper);font-family:Microsoft Sans Serif;fill:rgb(0,0,0);font-size:8.25pt;opacity:1;"><tspan dy="8.25pt" id="193">VideoWriter</tspan></text><path d="&E28;" style="&E3;" transform="&E29;" id="195" /><ellipse id="196" cy="15.00" cx="15.00" transform="&E29;" rx="15.00" ry="15.00" style="&E30;" /><path style="&E13;" transform="&E29;" id="197" d="M 4.4028 13 4.93347 11.3266 C 6.15637 11.7667 7.04467 12.1477 7.598371 12.4698 7.45224 11.0476 7.37533 10.0696 7.36764 9.5352 L 9.040441 9.5352 C 9.017365 10.3131 8.92891 11.2873 8.775101 12.4581 9.567261 12.0495 10.4748 11.6723 11.4977 11.3266 L 12.02837 13 C 11.05162 13.3302 10.09407 13.5502 9.155771 13.6601 9.624911 14.0766 10.28637 14.819 11.14007 15.8877 L 9.755671 16.8894 C 9.30959 16.2687 8.782761 15.4241 8.175171 14.3554 7.606041 15.4633 7.106171 16.308 6.675471 16.8894 L 5.314171 15.8877 C 6.206311 14.7642 6.844671 14.0216 7.229171 13.6601 6.237041 13.4637 5.294871 13.2437 4.402771 13 z " /><path style="&E13;" transform="&E29;" id="198" d="M 11.656 8.2 11.99975 8.7 16.31225 14.7937 11.65605 21.4187 11.28105 21.9187 14.74985 21.9187 14.8436 21.7624 17.9998 17.0124 18.46855 17.7 21.15605 21.7624 21.2498 21.9187 24.7498 21.9187 24.40605 21.4187 19.65605 14.6687 24.06225 8.699997 24.406 8.199997 20.9998 8.199997 20.90605 8.324997 18.68725 11.4187 C 18.46251 11.7285 18.22333 12.1062 17.9685 12.4812 17.77046 12.1547 17.58677 11.8424 17.31225 11.4187 L 15.28105 8.356197 15.1873 8.199997 11.6561 8.199997 z " /><text id="199" transform="&E10;" x="84.00" y="199.00" style="stroke:none;clip-path:url(#201_text_clipper);font-family:Microsoft Sans Serif;fill:rgb(0,0,0);font-size:8.25pt;opacity:1;"><tspan dy="8.25pt" id="203">video</tspan></text><path d="&E28;" style="&E3;" transform="&E34;" id="205" /><ellipse id="206" cy="15.00" cx="15.00" transform="&E34;" rx="15.00" ry="15.00" style="&E30;" /><path d="&E25;" style="&E13;" transform="&E34;" id="207" /><path d="&E26;" style="&E13;" transform="&E34;" id="208" /><text id="209" transform="&E10;" x="4.00" y="39.00" style="stroke:none;clip-path:url(#211_text_clipper);font-family:Microsoft Sans Serif;fill:rgb(0,0,0);font-size:8.25pt;opacity:1;"><tspan dy="8.25pt" id="213">Camera</tspan></text><text id="215" transform="&E10;" x="4.00" y="51.45" style="stroke:none;clip-path:url(#217_text_clipper);font-family:Microsoft Sans Serif;fill:rgb(0,0,0);font-size:8.25pt;opacity:1;"><tspan dy="8.25pt" id="219">Capture</tspan></text></g><defs id="clips_hatches_and_gradients"><clipPath id="155_text_clipper"><rect x="164.00" y="39.00" width="53.45" height="13.83" id="156" /></clipPath><clipPath id="164_text_clipper"><rect x="164.00" y="119.00" width="30.82" height="13.83" id="165" /></clipPath><clipPath id="173_text_clipper"><rect x="164.00" y="199.00" width="62.23" height="13.83" id="174" /></clipPath><clipPath id="181_text_clipper"><rect x="84.00" y="39.00" width="59.76" height="13.83" id="182" /></clipPath><clipPath id="191_text_clipper"><rect x="84.00" y="119.00" width="62.97" height="13.83" id="192" /></clipPath><clipPath id="201_text_clipper"><rect x="84.00" y="199.00" width="30.82" height="13.83" id="202" /></clipPath><clipPath id="211_text_clipper"><rect x="4.00" y="39.00" width="43.97" height="27.65" id="212" /></clipPath><clipPath id="217_text_clipper"><rect x="4.00" y="51.45" width="43.97" height="27.65" id="218" /></clipPath></defs></svg>